<svg width="122" height="84" viewBox="0 0 122 84" fill="none" xmlns="http://www.w3.org/2000/svg">
<path d="M104.818 0.112843C104.818 0.112843 91.2894 31.6984 90.312 33.6532C89.7976 34.6305 89.3342 35.1965 87.8947 36.1739H94.9924C93.6035 35.5566 93.3469 34.8355 93.8099 33.6009C93.9127 33.0351 95.1471 29.9999 96.6903 26.5019H109.293C110.734 29.9999 112.072 33.1387 112.226 33.6531C112.585 34.7325 112.328 35.4536 110.99 36.1738H122C120.302 35.2993 119.942 34.7325 119.427 33.6531C118.502 31.6983 104.818 0.112843 104.818 0.112843ZM42.7947 0.626945C38.1136 0.626945 31.5806 3.40501 31.5806 10.4007C31.5806 14.3102 33.6383 17.0882 38.3709 19.7115C43.052 22.2321 47.5274 22.9004 47.5274 27.8387C47.5274 30.3601 45.9841 34.0128 40.8915 34.0128C35.5416 34.0128 32.456 29.1769 31.4786 25.525L31.7351 34.2185C33.5355 35.093 36.9313 36.6882 41.6126 36.6882C47.9398 36.6882 53.5983 32.3161 53.5983 25.8856C53.5983 18.7345 48.6083 17.0378 43.8245 14.7735C38.9891 12.5616 36.7766 11.3776 36.7766 8.23971C36.7766 6.02775 38.3205 3.30163 42.23 3.30163C47.1683 3.30163 50.1001 7.41657 50.8206 10.1429L50.5642 2.52985C47.9399 0.986618 44.5445 0.626617 42.7955 0.626617L42.7947 0.626945ZM0 1.19331C0.823055 1.60484 1.64561 2.32427 1.64561 3.50741V24.9077C1.64561 34.0135 9.31089 36.6885 15.3297 36.6885C22.3257 36.6885 27.5212 33.294 27.5212 24.5484L27.6756 3.50824C27.6756 2.3251 28.2409 1.60567 29.0125 1.19414H23.0462C23.8187 1.60567 24.4354 2.3251 24.4354 3.50824L24.5375 24.6521C24.5375 29.7448 22.3252 33.7563 16.2041 33.7563C9.51673 33.7563 8.28223 28.6645 8.28223 25.0628V3.50824C8.28223 2.3251 9.05375 1.60567 9.87682 1.19414L0 1.19331ZM56.9908 1.19331C57.7624 1.60484 58.3265 2.32427 58.3265 3.50741V33.8592C58.3265 34.9909 57.7624 35.7115 56.9908 36.1745H70.2103C84.0993 36.1745 90.9932 27.12 90.9932 18.1685C90.9932 13.1787 87.5984 1.19381 70.6732 1.19381L56.9908 1.19331ZM69.593 3.76503C80.2412 3.76503 83.8429 11.9955 83.8429 18.1685C83.8429 25.6797 80.6018 33.4979 68.9757 33.4979H64.8604V3.86874C65.6328 3.76586 68.3584 3.76503 69.593 3.76503ZM102.864 11.2237C102.864 11.2237 105.693 18.1171 108.11 23.8267H97.7176C99.3637 19.9687 102.864 11.2237 102.864 11.2237Z" fill="#002D72"/>
<path d="M117.155 41.0828C102.221 41.0502 40.0576 42.2113 1.26367 62.883C1.26367 62.883 48.25 44.302 120.457 46.1605V41.1167C120.457 41.1167 119.287 41.0873 117.154 41.0827L117.155 41.0828ZM1.26367 41.1168V45.8944C10.0244 44.5677 42.1435 47.2216 42.1435 47.2216C26.4813 41.3814 1.26367 41.1168 1.26367 41.1168ZM16.2612 49.0605C8.31548 49.0345 1.26367 49.3448 1.26367 49.3448V54.1237C3.91844 52.7962 30.1992 49.611 30.1992 49.611C26.1178 49.2131 21.0286 49.076 16.2612 49.0605ZM113.277 50.0972C111.747 50.1038 109.996 50.1224 108.047 50.1579L107.663 50.1652C85.8947 50.5825 40.245 53.2096 1.28019 66.9748V83.562L120.474 83.5401V50.1574C120.474 50.1574 117.87 50.0767 113.279 50.0967L113.277 50.0972Z" fill="#005440"/>
</svg>
